<?xml version="1.0" encoding="iso-8859-1"?>
<!-- Generator: Adobe Illustrator 19.0.0, SVG Export Plug-In . SVG Version: 6.00 Build 0)  -->
<svg version="1.1" id="Layer_1" xmlns="http://www.w3.org/2000/svg" xmlns:xlink="http://www.w3.org/1999/xlink" x="0px" y="0px"
	 viewBox="0 0 392.533 392.533" style="enable-background:new 0 0 392.533 392.533;" xml:space="preserve">
<path style="fill:#FFC10D;" d="M214.626,203.83L353.164,77.705H39.305L177.842,203.83
	C188.38,213.463,204.154,213.463,214.626,203.83z"/>
<g>
	<path style="fill:#194F82;" d="M252.444,112.485c0-6.012-4.848-10.925-10.925-10.925h-90.505c-6.012,0-10.925,4.848-10.925,10.925
		c0,6.012,4.848,10.925,10.925,10.925h90.505C247.596,123.41,252.444,118.562,252.444,112.485z"/>
	<path style="fill:#194F82;" d="M359.822,55.984H32.711C14.675,55.984,0,70.659,0,88.695v215.143
		c0,18.036,14.675,32.711,32.711,32.711h327.111c18.036,0,32.711-14.675,32.711-32.711V88.63
		C392.533,70.659,377.859,55.984,359.822,55.984z M353.228,77.77L214.626,203.83c-10.537,9.568-26.246,9.568-36.784,0L39.305,77.77
		H353.228z M21.786,299.313V91.281l118.238,107.636L21.786,299.313z M37.366,314.634l118.949-100.913l6.853,6.271
		c19.653,17.648,48.549,16.485,66.133,0l6.853-6.271l118.949,100.978H37.366V314.634z M370.747,299.313L252.509,198.917
		L370.747,91.281V299.313z"/>
</g>
<g>
	<polygon style="fill:#FFFFFF;" points="21.786,91.281 21.786,299.313 140.024,198.917 	"/>
	<polygon style="fill:#FFFFFF;" points="370.747,299.313 370.747,91.281 252.509,198.917 	"/>
</g>
<path style="fill:#56ACE0;" d="M229.366,219.992c-17.648,16.485-46.545,17.648-66.133,0l-6.853-6.271L37.43,314.634h317.802
	L236.218,213.721L229.366,219.992z"/>
<g>
</g>
<g>
</g>
<g>
</g>
<g>
</g>
<g>
</g>
<g>
</g>
<g>
</g>
<g>
</g>
<g>
</g>
<g>
</g>
<g>
</g>
<g>
</g>
<g>
</g>
<g>
</g>
<g>
</g>
</svg>
